<?xml version="1.0" encoding="UTF-8"?>
<svg xmlns="http://www.w3.org/2000/svg" xmlns:xlink="http://www.w3.org/1999/xlink" width="24pt" height="23pt" viewBox="0 0 24 23" version="1.1">
<defs>
<filter id="alpha" filterUnits="objectBoundingBox" x="0%" y="0%" width="100%" height="100%">
  <feColorMatrix type="matrix" in="SourceGraphic" values="0 0 0 0 1 0 0 0 0 1 0 0 0 0 1 0 0 0 1 0"/>
</filter>
<mask id="mask0">
  <g filter="url(#alpha)">
<rect x="0" y="0" width="24" height="23" style="fill:rgb(0%,0%,0%);fill-opacity:0.101961;stroke:none;"/>
  </g>
</mask>
<clipPath id="clip1">
  <rect width="24" height="23"/>
</clipPath>
<g id="surface6" clip-path="url(#clip1)">
<path style=" stroke:none;fill-rule:nonzero;fill:rgb(0%,0%,0%);fill-opacity:1;" d="M 12.429688 5.03125 L 9.3125 5.03125 L 9.328125 5.097656 L 9.332031 5.105469 L 9.347656 5.164062 C 9.816406 6.90625 11.613281 7.972656 13.414062 7.589844 L 13.414062 5.988281 C 13.414062 5.460938 12.972656 5.03125 12.429688 5.03125 Z M 12.429688 5.03125 "/>
</g>
<mask id="mask1">
  <g filter="url(#alpha)">
<rect x="0" y="0" width="24" height="23" style="fill:rgb(0%,0%,0%);fill-opacity:0.2;stroke:none;"/>
  </g>
</mask>
<clipPath id="clip2">
  <rect width="24" height="23"/>
</clipPath>
<g id="surface9" clip-path="url(#clip2)">
<path style=" stroke:none;fill-rule:nonzero;fill:rgb(0%,0%,0%);fill-opacity:1;" d="M 11.695312 5.75 L 9.566406 5.75 C 10.136719 6.921875 11.347656 7.667969 12.675781 7.667969 L 12.675781 6.707031 C 12.675781 6.179688 12.234375 5.75 11.695312 5.75 Z M 11.695312 5.75 "/>
</g>
<mask id="mask2">
  <g filter="url(#alpha)">
<rect x="0" y="0" width="24" height="23" style="fill:rgb(0%,0%,0%);fill-opacity:0.2;stroke:none;"/>
  </g>
</mask>
<clipPath id="clip3">
  <rect width="24" height="23"/>
</clipPath>
<g id="surface12" clip-path="url(#clip3)">
<path style=" stroke:none;fill-rule:nonzero;fill:rgb(0%,0%,0%);fill-opacity:1;" d="M 11.695312 5.75 L 9.566406 5.75 C 10.136719 6.921875 11.347656 7.667969 12.675781 7.667969 L 12.675781 6.707031 C 12.675781 6.179688 12.234375 5.75 11.695312 5.75 Z M 11.695312 5.75 "/>
</g>
<mask id="mask3">
  <g filter="url(#alpha)">
<rect x="0" y="0" width="24" height="23" style="fill:rgb(0%,0%,0%);fill-opacity:0.101961;stroke:none;"/>
  </g>
</mask>
<clipPath id="clip4">
  <rect width="24" height="23"/>
</clipPath>
<g id="surface15" clip-path="url(#clip4)">
<path style=" stroke:none;fill-rule:nonzero;fill:rgb(0%,0%,0%);fill-opacity:1;" d="M 13.414062 8.625 L 13.414062 17.730469 C 13.414062 18.179688 13.09375 18.5625 12.648438 18.660156 C 12.578125 18.679688 12.507812 18.6875 12.433594 18.6875 L 7.207031 18.6875 C 7.109375 18.453125 7.027344 18.214844 6.960938 17.96875 C 6.839844 17.5 6.777344 17.015625 6.777344 16.53125 L 6.777344 9.703125 C 6.777344 9.417969 6.894531 9.144531 7.101562 8.941406 C 7.308594 8.738281 7.589844 8.625 7.882812 8.625 Z M 13.414062 8.625 "/>
</g>
<mask id="mask4">
  <g filter="url(#alpha)">
<rect x="0" y="0" width="24" height="23" style="fill:rgb(0%,0%,0%);fill-opacity:0.2;stroke:none;"/>
  </g>
</mask>
<clipPath id="clip5">
  <rect width="24" height="23"/>
</clipPath>
<g id="surface18" clip-path="url(#clip5)">
<path style=" stroke:none;fill-rule:nonzero;fill:rgb(0%,0%,0%);fill-opacity:1;" d="M 12.675781 8.625 L 12.675781 18.449219 C 12.679688 18.519531 12.667969 18.589844 12.648438 18.660156 C 12.550781 19.09375 12.152344 19.40625 11.695312 19.40625 L 7.574219 19.40625 C 7.433594 19.175781 7.308594 18.9375 7.207031 18.6875 C 7.109375 18.453125 7.027344 18.214844 6.960938 17.96875 C 6.839844 17.5 6.777344 17.015625 6.777344 16.53125 L 6.777344 9.703125 C 6.777344 9.417969 6.894531 9.144531 7.101562 8.941406 C 7.308594 8.738281 7.589844 8.625 7.882812 8.625 Z M 12.675781 8.625 "/>
</g>
<mask id="mask5">
  <g filter="url(#alpha)">
<rect x="0" y="0" width="24" height="23" style="fill:rgb(0%,0%,0%);fill-opacity:0.2;stroke:none;"/>
  </g>
</mask>
<clipPath id="clip6">
  <rect width="24" height="23"/>
</clipPath>
<g id="surface21" clip-path="url(#clip6)">
<path style=" stroke:none;fill-rule:nonzero;fill:rgb(0%,0%,0%);fill-opacity:1;" d="M 12.675781 8.625 L 12.675781 17.011719 C 12.675781 17.539062 12.238281 17.964844 11.695312 17.96875 L 6.960938 17.96875 C 6.839844 17.5 6.777344 17.015625 6.777344 16.53125 L 6.777344 9.703125 C 6.777344 9.417969 6.894531 9.144531 7.101562 8.941406 C 7.308594 8.738281 7.589844 8.625 7.882812 8.625 Z M 12.675781 8.625 "/>
</g>
<mask id="mask6">
  <g filter="url(#alpha)">
<rect x="0" y="0" width="24" height="23" style="fill:rgb(0%,0%,0%);fill-opacity:0.2;stroke:none;"/>
  </g>
</mask>
<clipPath id="clip7">
  <rect width="24" height="23"/>
</clipPath>
<g id="surface24" clip-path="url(#clip7)">
<path style=" stroke:none;fill-rule:nonzero;fill:rgb(0%,0%,0%);fill-opacity:1;" d="M 7.882812 8.625 C 7.589844 8.625 7.308594 8.738281 7.101562 8.941406 C 6.894531 9.144531 6.777344 9.417969 6.777344 9.703125 L 6.777344 16.53125 C 6.777344 17.015625 6.839844 17.5 6.960938 17.96875 L 10.957031 17.96875 C 11.5 17.964844 11.9375 17.539062 11.941406 17.011719 L 11.941406 8.625 Z M 7.882812 8.625 "/>
</g>
</defs>
<g id="surface1">
<path style=" stroke:none;fill-rule:nonzero;fill:rgb(48.235294%,51.372549%,92.156863%);fill-opacity:1;" d="M 16.117188 4.3125 C 16.117188 6.164062 14.578125 7.667969 12.675781 7.667969 C 10.777344 7.667969 9.234375 6.164062 9.234375 4.3125 C 9.234375 2.460938 10.777344 0.957031 12.675781 0.957031 C 14.578125 0.957031 16.117188 2.460938 16.117188 4.3125 Z M 16.117188 4.3125 "/>
<use xlink:href="#surface6" mask="url(#mask0)"/>
<use xlink:href="#surface9" mask="url(#mask1)"/>
<path style=" stroke:none;fill-rule:nonzero;fill:rgb(31.372549%,34.901961%,78.823529%);fill-opacity:1;" d="M 23 5.390625 C 23 6.78125 21.84375 7.90625 20.417969 7.90625 C 18.996094 7.90625 17.839844 6.78125 17.839844 5.390625 C 17.839844 4 18.996094 2.875 20.417969 2.875 C 21.84375 2.875 23 4 23 5.390625 Z M 23 5.390625 "/>
<path style=" stroke:none;fill-rule:nonzero;fill:rgb(31.372549%,34.901961%,78.823529%);fill-opacity:1;" d="M 22.632812 8.625 L 16.835938 8.625 C 16.574219 8.625 16.363281 8.832031 16.363281 9.085938 L 16.363281 14.914062 C 16.332031 16.652344 17.550781 18.175781 19.289062 18.566406 C 20.375 18.789062 21.507812 18.523438 22.371094 17.839844 C 23.234375 17.15625 23.738281 16.132812 23.738281 15.050781 L 23.738281 9.703125 C 23.738281 9.109375 23.242188 8.625 22.632812 8.625 Z M 22.632812 8.625 "/>
<path style=" stroke:none;fill-rule:nonzero;fill:rgb(48.235294%,51.372549%,92.156863%);fill-opacity:1;" d="M 18.578125 9.703125 L 18.578125 16.53125 C 18.578125 19.132812 16.785156 21.410156 14.207031 22.085938 C 11.628906 22.757812 8.90625 21.660156 7.574219 19.40625 C 7.433594 19.175781 7.308594 18.9375 7.207031 18.6875 C 7.109375 18.453125 7.027344 18.214844 6.960938 17.96875 C 6.839844 17.5 6.777344 17.015625 6.777344 16.53125 L 6.777344 9.703125 C 6.777344 9.417969 6.894531 9.144531 7.101562 8.941406 C 7.308594 8.738281 7.589844 8.625 7.882812 8.625 L 17.46875 8.625 C 17.761719 8.625 18.046875 8.738281 18.253906 8.941406 C 18.460938 9.144531 18.578125 9.417969 18.578125 9.703125 Z M 18.578125 9.703125 "/>
<use xlink:href="#surface12" mask="url(#mask2)"/>
<use xlink:href="#surface15" mask="url(#mask3)"/>
<use xlink:href="#surface18" mask="url(#mask4)"/>
<use xlink:href="#surface21" mask="url(#mask5)"/>
<use xlink:href="#surface24" mask="url(#mask6)"/>
<path style=" stroke:none;fill-rule:nonzero;fill:rgb(29.411765%,32.54902%,73.72549%);fill-opacity:1;" d="M 1.125 5.75 L 10.957031 5.75 C 11.5 5.75 11.941406 6.179688 11.941406 6.707031 L 11.941406 16.292969 C 11.941406 16.820312 11.5 17.25 10.957031 17.25 L 1.125 17.25 C 0.582031 17.25 0.140625 16.820312 0.140625 16.292969 L 0.140625 6.707031 C 0.140625 6.179688 0.582031 5.75 1.125 5.75 Z M 1.125 5.75 "/>
<path style=" stroke:none;fill-rule:nonzero;fill:rgb(100%,100%,100%);fill-opacity:1;" d="M 8.976562 9.324219 L 6.769531 9.324219 L 6.769531 15.089844 L 5.324219 15.089844 L 5.324219 9.324219 L 3.105469 9.324219 L 3.105469 7.910156 L 8.976562 7.910156 Z M 8.976562 9.324219 "/>
</g>
</svg>
